<svg width="40" height="41" viewBox="0 0 40 41" fill="none" xmlns="http://www.w3.org/2000/svg">
<path d="M24.1673 19.5H15.834C15.1507 19.5 14.584 18.9333 14.584 18.25C14.584 17.5667 15.1507 17 15.834 17H24.1673C24.8507 17 25.4173 17.5667 25.4173 18.25C25.4173 18.9333 24.8507 19.5 24.1673 19.5Z" fill="black"/>
<path d="M20 23.7667C19.3167 23.7667 18.75 23.2 18.75 22.5167V14.1833C18.75 13.5 19.3167 12.9333 20 12.9333C20.6833 12.9333 21.25 13.5 21.25 14.1833V22.5167C21.25 23.2 20.6833 23.7667 20 23.7667Z" fill="black"/>
<path d="M31.7832 38.4166C30.9332 38.4166 29.9999 38.1666 29.0999 37.6499L20.9665 33.1333C20.4832 32.8666 19.5332 32.8666 19.0499 33.1333L10.9165 37.6499C9.26654 38.5666 7.5832 38.6666 6.29987 37.8999C5.01654 37.1499 4.2832 35.6333 4.2832 33.7499V10.2666C4.2832 6.03325 7.7332 2.58325 11.9665 2.58325H28.0499C32.2832 2.58325 35.7332 6.03325 35.7332 10.2666V33.7499C35.7332 35.6333 34.9999 37.1499 33.7165 37.8999C33.1332 38.2499 32.4665 38.4166 31.7832 38.4166ZM19.9999 30.4333C20.7832 30.4333 21.5499 30.5999 22.1665 30.9499L30.2999 35.4666C31.1499 35.9499 31.9332 36.0499 32.4332 35.7499C32.9332 35.4499 33.2165 34.7333 33.2165 33.7499V10.2666C33.2165 7.41659 30.8832 5.08325 28.0332 5.08325H11.9665C9.11654 5.08325 6.7832 7.41659 6.7832 10.2666V33.7499C6.7832 34.7333 7.06654 35.4666 7.56654 35.7499C8.06654 36.0333 8.84987 35.9499 9.69987 35.4666L17.8332 30.9499C18.4499 30.5999 19.2165 30.4333 19.9999 30.4333Z" fill="black"/>
</svg>
