<svg width="40" height="41" viewBox="0 0 40 41" fill="none" xmlns="http://www.w3.org/2000/svg">
<path d="M33.1673 38.4167H6.83398C3.63398 38.4167 2.08398 36.7833 2.08398 33.45V26.7167C2.08398 23.3667 3.63398 21.75 6.83398 21.75H33.1673C36.3673 21.75 37.9173 23.3833 37.9173 26.7167V33.45C37.9173 36.7833 36.3673 38.4167 33.1673 38.4167ZM6.83398 24.25C5.15065 24.25 4.58398 24.6 4.58398 26.7167V33.45C4.58398 35.5667 5.15065 35.9167 6.83398 35.9167H33.1673C34.8507 35.9167 35.4173 35.5667 35.4173 33.45V26.7167C35.4173 24.6 34.8507 24.25 33.1673 24.25H6.83398Z" fill="black"/>
<path d="M21.5006 19.2499H6.83398C3.63398 19.2499 2.08398 17.6166 2.08398 14.2833V7.54992C2.08398 4.19992 3.63398 2.58325 6.83398 2.58325H21.5006C24.7006 2.58325 26.2507 4.21659 26.2507 7.54992V14.2833C26.2507 17.6166 24.7006 19.2499 21.5006 19.2499ZM6.83398 5.08325C5.15065 5.08325 4.58398 5.43325 4.58398 7.54992V14.2833C4.58398 16.3999 5.15065 16.7499 6.83398 16.7499H21.5006C23.184 16.7499 23.7507 16.3999 23.7507 14.2833V7.54992C23.7507 5.43325 23.184 5.08325 21.5006 5.08325H6.83398V5.08325Z" fill="black"/>
</svg>
