<svg width="40" height="41" viewBox="0 0 40 41" fill="none" xmlns="http://www.w3.org/2000/svg">
<path d="M36.6673 38.4167H3.33398C2.65065 38.4167 2.08398 37.8501 2.08398 37.1667C2.08398 36.4834 2.65065 35.9167 3.33398 35.9167H36.6673C37.3507 35.9167 37.9173 36.4834 37.9173 37.1667C37.9173 37.8501 37.3507 38.4167 36.6673 38.4167Z" fill="black"/>
<path d="M6.16797 37.1666H3.66797L3.75131 17.1165C3.75131 15.6998 4.4013 14.3832 5.51797 13.5166L17.1846 4.4332C18.8346 3.14987 21.1513 3.14987 22.818 4.4332L34.4846 13.4999C35.5846 14.3665 36.2513 15.7165 36.2513 17.1165V37.1666H33.7513V17.1332C33.7513 16.4999 33.4513 15.8832 32.9513 15.4832L21.2846 6.41654C20.5346 5.83321 19.4846 5.83321 18.718 6.41654L7.05131 15.4999C6.55131 15.8832 6.25131 16.4999 6.25131 17.1332L6.16797 37.1666Z" fill="black"/>
<path d="M28.3327 38.4166H11.666C10.9827 38.4166 10.416 37.8499 10.416 37.1666V21.3333C10.416 19.2666 12.0993 17.5833 14.166 17.5833H25.8327C27.8993 17.5833 29.5827 19.2666 29.5827 21.3333V37.1666C29.5827 37.8499 29.016 38.4166 28.3327 38.4166ZM12.916 35.9166H27.0827V21.3333C27.0827 20.6499 26.516 20.0833 25.8327 20.0833H14.166C13.4827 20.0833 12.916 20.6499 12.916 21.3333V35.9166Z" fill="black"/>
<path d="M16.666 31.3333C15.9827 31.3333 15.416 30.7666 15.416 30.0833V27.5833C15.416 26.8999 15.9827 26.3333 16.666 26.3333C17.3493 26.3333 17.916 26.8999 17.916 27.5833V30.0833C17.916 30.7666 17.3493 31.3333 16.666 31.3333Z" fill="black"/>
<path d="M22.5 14.25H17.5C16.8167 14.25 16.25 13.6833 16.25 13C16.25 12.3167 16.8167 11.75 17.5 11.75H22.5C23.1833 11.75 23.75 12.3167 23.75 13C23.75 13.6833 23.1833 14.25 22.5 14.25Z" fill="black"/>
</svg>
