<svg width="40" height="41" viewBox="0 0 40 41" fill="none" xmlns="http://www.w3.org/2000/svg">
<path d="M20.0006 23.5833C19.7839 23.5833 19.5673 23.5333 19.3839 23.4166C18.7839 23.0666 18.5839 22.2999 18.9173 21.7166L20.3339 19.2499H18.9339C18.1006 19.2499 17.4173 18.8833 17.0506 18.2666C16.6839 17.6333 16.7173 16.8666 17.1339 16.1333L18.9173 13.0333C19.2673 12.4333 20.0339 12.2333 20.6173 12.5666C21.2173 12.9166 21.4173 13.6833 21.0839 14.2666L19.6673 16.7499H21.0673C21.9006 16.7499 22.5839 17.1166 22.9506 17.7333C23.3173 18.3666 23.2839 19.1333 22.8673 19.8666L21.0839 22.9666C20.8506 23.3666 20.4339 23.5833 20.0006 23.5833Z" fill="white"/>
<path d="M24.6172 33.4166H15.4339C14.7005 33.4166 13.7672 33.3333 13.1505 32.6999C12.5505 32.0833 12.5672 31.3166 12.5839 30.7999V29.3166C8.38385 26.5166 5.61719 21.6499 5.61719 17.0166C5.61719 12.6332 7.58385 8.53325 11.0005 5.78325C14.4172 3.03325 18.9005 1.99992 23.2839 2.96658C27.4505 3.88325 31.0505 6.66658 32.9172 10.4166C36.5339 17.6999 33.0505 25.5832 27.4839 29.3333V30.5833C27.5005 31.0666 27.5172 31.9499 26.8339 32.6499C26.3172 33.1499 25.5839 33.4166 24.6172 33.4166ZM15.0672 30.8999C15.1505 30.8999 15.2672 30.9166 15.4172 30.9166H24.6172C24.7839 30.9166 24.9005 30.8999 24.9672 30.8833C24.9672 30.8333 24.9672 30.7666 24.9672 30.7166V28.6166C24.9672 28.1833 25.2005 27.7666 25.5672 27.5499C30.5005 24.5666 33.7672 17.7499 30.6505 11.4999C29.1172 8.41658 26.1505 6.13325 22.7172 5.38325C19.0839 4.58325 15.3672 5.43325 12.5339 7.71658C9.70052 9.99992 8.08385 13.3832 8.08385 17.0166C8.08385 21.6499 11.2839 25.6499 14.4505 27.5666C14.8339 27.7999 15.0505 28.1999 15.0505 28.6332V30.8833C15.0672 30.8833 15.0672 30.8833 15.0672 30.8999Z" fill="white"/>
<path d="M25.8334 38.4166C25.7168 38.4166 25.6001 38.3999 25.4834 38.3666C21.8834 37.3332 18.1001 37.3332 14.5001 38.3666C13.8334 38.5499 13.1501 38.1666 12.9501 37.4999C12.7501 36.8332 13.1501 36.1499 13.8168 35.9499C17.8501 34.7999 22.1334 34.7999 26.1668 35.9499C26.8334 36.1332 27.2168 36.8332 27.0334 37.4999C26.8834 38.0666 26.3834 38.4166 25.8334 38.4166Z" fill="white"/>
</svg>
