<svg width="40" height="41" viewBox="0 0 40 41" fill="none" xmlns="http://www.w3.org/2000/svg">
<path d="M14.9835 36.3334C12.2168 36.3334 9.43346 35.2834 7.3168 33.1668C3.10013 28.9334 3.10013 22.0668 7.3168 17.8501C7.80013 17.3668 8.60013 17.3668 9.08346 17.8501C9.5668 18.3334 9.5668 19.1334 9.08346 19.6168C5.83346 22.8668 5.83346 28.1501 9.08346 31.4001C12.3335 34.6501 17.6168 34.6501 20.8668 31.4001C22.4335 29.8334 23.3001 27.7334 23.3001 25.5001C23.3001 23.2834 22.4335 21.1834 20.8668 19.6001C20.3835 19.1168 20.3835 18.3168 20.8668 17.8334C21.3501 17.3501 22.1501 17.3501 22.6335 17.8334C24.6835 19.8834 25.8001 22.6001 25.8001 25.5001C25.8001 28.4001 24.6668 31.1168 22.6335 33.1668C20.5335 35.2834 17.7668 36.3334 14.9835 36.3334Z" fill="black"/>
<path d="M31.7835 24.1001C31.4668 24.1001 31.1501 23.9834 30.9001 23.7334C30.4168 23.2501 30.4168 22.4501 30.9001 21.9667C34.3168 18.5501 34.3168 13.0001 30.9001 9.60007C27.4835 6.1834 21.9335 6.1834 18.5335 9.60007C16.8835 11.2501 15.9668 13.4501 15.9668 15.7834C15.9668 18.1167 16.8835 20.3167 18.5335 21.9667C19.0168 22.4501 19.0168 23.2501 18.5335 23.7334C18.0501 24.2167 17.2501 24.2167 16.7668 23.7334C14.6501 21.6167 13.4668 18.7834 13.4668 15.7834C13.4668 12.7834 14.6335 9.95007 16.7668 7.8334C21.1501 3.45007 28.2835 3.45007 32.6835 7.8334C37.0668 12.2167 37.0668 19.3667 32.6835 23.7501C32.4335 23.9834 32.1001 24.1001 31.7835 24.1001Z" fill="black"/>
</svg>
