<svg width="40" height="41" viewBox="0 0 40 41" fill="none" xmlns="http://www.w3.org/2000/svg">
<g id="vuesax/outline/messages-3">
<g id="messages-3">
<path id="Vector" d="M28.1673 32.1834C27.6506 32.1834 27.134 32.0334 26.684 31.7334L25.084 30.6834C24.634 30.3834 24.4173 29.8168 24.5673 29.3001C24.684 28.9168 24.734 28.4667 24.734 27.9667V21.1834C24.734 18.4667 23.034 16.7668 20.3173 16.7668H9.00064C8.80064 16.7668 8.61731 16.7835 8.43398 16.8001C8.08398 16.8168 7.75066 16.7001 7.48399 16.4668C7.21733 16.2334 7.08398 15.9001 7.08398 15.5501V10.9334C7.08398 6.03343 10.5173 2.6001 15.4173 2.6001H29.584C34.484 2.6001 37.9173 6.03343 37.9173 10.9334V19.4334C37.9173 21.8501 37.1007 23.9834 35.6007 25.45C34.4007 26.6667 32.734 27.4501 30.834 27.6834V29.5334C30.834 30.5334 30.284 31.4335 29.4173 31.9001C29.0173 32.0835 28.584 32.1834 28.1673 32.1834ZM27.1673 29.0501L28.2506 29.6667C28.3506 29.6167 28.3506 29.5334 28.3506 29.5167V26.5C28.3506 25.8167 28.9173 25.25 29.6006 25.25C31.3506 25.25 32.834 24.7001 33.8506 23.6668C34.9006 22.6335 35.434 21.1667 35.434 19.4167V10.9167C35.434 7.36675 33.1506 5.08341 29.6006 5.08341H15.434C11.884 5.08341 9.60064 7.36675 9.60064 10.9167V14.2501H20.334C24.4006 14.2501 27.2507 17.1001 27.2507 21.1668V27.95C27.234 28.3334 27.2173 28.7001 27.1673 29.0501Z" fill="black"/>
<path id="Vector_2" d="M10.1173 38.4167C9.75066 38.4167 9.36732 38.3334 9.01732 38.15C8.23399 37.7334 7.75064 36.9333 7.75064 36.0333V34.7667C6.28397 34.5333 4.98399 33.9166 4.01732 32.95C2.75066 31.6833 2.08398 29.95 2.08398 27.95V21.1667C2.08398 17.4 4.55064 14.6334 8.21731 14.2834C8.48397 14.2667 8.73397 14.25 9.00064 14.25H20.3173C24.384 14.25 27.234 17.1 27.234 21.1667V27.95C27.234 28.6833 27.1506 29.3667 26.9673 29.9833C26.2173 32.9833 23.6673 34.8667 20.3173 34.8667H16.1673L11.4506 38C11.0506 38.2833 10.584 38.4167 10.1173 38.4167ZM9.00064 16.75C8.80064 16.75 8.61731 16.7667 8.43398 16.7834C6.03398 17 4.58398 18.65 4.58398 21.1667V27.95C4.58398 29.2833 5.00065 30.4 5.78399 31.1833C6.55065 31.95 7.66731 32.3667 9.00064 32.3667C9.68397 32.3667 10.2506 32.9333 10.2506 33.6167V35.8L15.084 32.5833C15.284 32.45 15.534 32.3667 15.784 32.3667H20.3173C22.5173 32.3667 24.0673 31.2666 24.5506 29.3333C24.6673 28.9166 24.734 28.45 24.734 27.95V21.1667C24.734 18.45 23.034 16.75 20.3173 16.75H9.00064Z" fill="black"/>
</g>
</g>
</svg>
