<svg width="40" height="41" viewBox="0 0 40 41" fill="none" xmlns="http://www.w3.org/2000/svg">
<path d="M31.6673 30.0834H8.33398C4.30065 30.0834 2.08398 27.8667 2.08398 23.8334V17.1667C2.08398 13.1334 4.30065 10.9167 8.33398 10.9167H31.6673C35.7007 10.9167 37.9173 13.1334 37.9173 17.1667V23.8334C37.9173 27.8667 35.7007 30.0834 31.6673 30.0834ZM8.33398 13.4167C5.70065 13.4167 4.58398 14.5334 4.58398 17.1667V23.8334C4.58398 26.4667 5.70065 27.5834 8.33398 27.5834H31.6673C34.3007 27.5834 35.4173 26.4667 35.4173 23.8334V17.1667C35.4173 14.5334 34.3007 13.4167 31.6673 13.4167H8.33398Z" fill="black"/>
<path d="M30 21.7501C29.3167 21.7501 28.75 21.1834 28.75 20.5001V12.1667C28.75 11.4834 29.3167 10.9167 30 10.9167C30.6833 10.9167 31.25 11.4834 31.25 12.1667V20.5001C31.25 21.1834 30.6833 21.7501 30 21.7501Z" fill="black"/>
<path d="M10 20.0834C9.31667 20.0834 8.75 19.5167 8.75 18.8334V12.1667C8.75 11.4834 9.31667 10.9167 10 10.9167C10.6833 10.9167 11.25 11.4834 11.25 12.1667V18.8334C11.25 19.5167 10.6833 20.0834 10 20.0834Z" fill="black"/>
<path d="M16.666 21.7501C15.966 21.7501 15.416 21.1834 15.416 20.4834L15.4993 12.1501C15.4993 11.4667 16.066 10.9167 16.7493 10.9167C16.7493 10.9167 16.7493 10.9167 16.766 10.9167C17.4493 10.9167 18.016 11.4834 17.9993 12.1834L17.916 20.5167C17.916 21.2001 17.3493 21.7501 16.666 21.7501Z" fill="black"/>
<path d="M23.334 18.4167C22.6507 18.4167 22.084 17.8501 22.084 17.1667V12.1667C22.084 11.4834 22.6507 10.9167 23.334 10.9167C24.0173 10.9167 24.584 11.4834 24.584 12.1667V17.1667C24.584 17.8501 24.0173 18.4167 23.334 18.4167Z" fill="black"/>
</svg>
