<svg width="40" height="41" viewBox="0 0 40 41" fill="none" xmlns="http://www.w3.org/2000/svg">
<path d="M28.2497 30C27.9331 30 27.6164 29.8833 27.3664 29.6333C26.8831 29.15 26.8831 28.35 27.3664 27.8667C29.3331 25.9 30.4164 23.2833 30.4164 20.5C30.4164 17.7167 29.3331 15.1 27.3664 13.1333C26.8831 12.65 26.8831 11.85 27.3664 11.3667C27.8497 10.8833 28.6497 10.8833 29.1331 11.3667C31.5664 13.8 32.9164 17.05 32.9164 20.5C32.9164 23.95 31.5664 27.2 29.1331 29.6333C28.8831 29.8833 28.5664 30 28.2497 30Z" fill="black"/>
<path d="M11.7506 30C11.434 30 11.1173 29.8833 10.8673 29.6333C8.43397 27.2 7.08398 23.95 7.08398 20.5C7.08398 17.05 8.43397 13.8 10.8673 11.3667C11.3506 10.8833 12.1506 10.8833 12.634 11.3667C13.1173 11.85 13.1173 12.65 12.634 13.1333C10.6673 15.1 9.58398 17.7167 9.58398 20.5C9.58398 23.2833 10.6673 25.9 12.634 27.8667C13.1173 28.35 13.1173 29.15 12.634 29.6333C12.384 29.8833 12.0673 30 11.7506 30Z" fill="black"/>
<path d="M21.633 27.1999H18.6996C16.5829 27.1999 14.8496 25.4166 14.8496 23.2333C14.8496 22.5499 15.4163 21.9833 16.0996 21.9833C16.7829 21.9833 17.3496 22.5499 17.3496 23.2333C17.3496 24.0499 17.9496 24.6999 18.6996 24.6999H21.633C22.183 24.6999 22.6496 24.1999 22.6496 23.5832C22.6496 22.7999 22.4663 22.6999 21.9329 22.5166L17.2496 20.8833C15.6496 20.3166 14.8663 19.1999 14.8663 17.4499C14.8663 15.4499 16.4329 13.8333 18.3829 13.8333H21.3163C23.433 13.8333 25.1663 15.6166 25.1663 17.7999C25.1663 18.4832 24.5996 19.0499 23.9163 19.0499C23.2329 19.0499 22.6663 18.4832 22.6663 17.7999C22.6663 16.9832 22.0663 16.3333 21.3163 16.3333H18.3829C17.8329 16.3333 17.3663 16.8332 17.3663 17.4499C17.3663 18.2332 17.5496 18.3332 18.0829 18.5166L22.7663 20.1499C24.3663 20.7166 25.1496 21.8332 25.1496 23.5832C25.1329 25.5666 23.5663 27.1999 21.633 27.1999Z" fill="black"/>
<path d="M20 28.75C19.3167 28.75 18.75 28.1833 18.75 27.5V13.5C18.75 12.8167 19.3167 12.25 20 12.25C20.6833 12.25 21.25 12.8167 21.25 13.5V27.5C21.25 28.1833 20.6833 28.75 20 28.75Z" fill="black"/>
<path d="M20.0007 38.4166C10.1173 38.4166 2.08398 30.3833 2.08398 20.4999C2.08398 10.6166 10.1173 2.58325 20.0007 2.58325C29.884 2.58325 37.9173 10.6166 37.9173 20.4999C37.9173 30.3833 29.884 38.4166 20.0007 38.4166ZM20.0007 5.08325C11.5007 5.08325 4.58398 11.9999 4.58398 20.4999C4.58398 28.9999 11.5007 35.9166 20.0007 35.9166C28.5007 35.9166 35.4173 28.9999 35.4173 20.4999C35.4173 11.9999 28.5007 5.08325 20.0007 5.08325Z" fill="black"/>
</svg>
